<svg xmlns="http://www.w3.org/2000/svg" viewBox="0 0 550 521.17"><defs><style>.cls-1,.cls-3{fill:#fff;}.cls-1{stroke:#e6e6e6;stroke-miterlimit:10;stroke-width:0.82px;}.cls-2{fill:#efefef;}.cls-4{fill:#b3b3b3;}</style></defs><title>22x comp site-soc</title><g id="diamond"><path class="cls-1" d="M487.63,243.46c2.05-6,3.48-10.37,3.48-10.37s1.31-12.73,0-18-9.79-20.88-12.08-22.84-38.84-38.84-38.84-38.84S385,98,327.91,86.86s-69.52-6.2-95.31-2.94-58.75,18.61-73.76,28.4S102.37,157.69,90,170.09,67.77,192,64.51,196.53s-9.81,20.14-9.31,27.53a102.88,102.88,0,0,0,3.74,19.81l.29.19L275,458Z"/><path class="cls-2" d="M468.65,262.61a105.51,105.51,0,0,0,4.6-14.07c1.3-7.18,1.63-23.83,0-27.74s-24.15-31.34-24.15-31.34S374.68,96.44,282,99.38s-151.45,65.93-151.45,65.93l-45.37,40s-7.18,4.91-9.47,18.17,2.61,26,4.25,31.22c.35,1.13,5,9.51,12.2,21.95L275,458Z"/><path class="cls-3" d="M360.94,371.27c-12-35.45-42.83-60.88-85.79-60.88-47.83,0-79.79,25.53-88,60.47L275,458Z"/><path class="cls-2" d="M324.42,401l2.93,2.93L289,442.13H261.66L222.08,403l2.23-2.16a5.65,5.65,0,0,0,2.77-4.85,8.77,8.77,0,0,0-1.92-5.51l42.38-42.38h13.21L324,390.6a14.79,14.79,0,0,0-1.65,5.61A8.19,8.19,0,0,0,324.42,401Z"/><polygon class="cls-4" points="275.73 458.92 59.23 244.06 57.95 239.31 275.73 455.46 488.14 241.41 486.5 246.51 275.73 458.92"/></g></svg>